<svg xmlns="http://www.w3.org/2000/svg" xmlns:xlink="http://www.w3.org/1999/xlink" viewBox="0 0 125.92 111.61"><defs><style>.cls-1{fill:none;}.cls-2{fill:url(#radial-gradient);}.cls-3{clip-path:url(#clip-path);}.cls-4{fill:#f06a27;}.cls-5{fill:#f78f2f;}.cls-6{fill:#f9b227;}.cls-7{fill:url(#radial-gradient-2);}.cls-8{fill:#ed1c24;}</style><radialGradient id="radial-gradient" cx="55.15" cy="56.08" r="55.34" gradientTransform="translate(-128.87 -83.55) rotate(-39) scale(1 4)" gradientUnits="userSpaceOnUse"><stop offset="0.17" stop-color="#f06a27"/><stop offset="0.37" stop-color="#f06627"/><stop offset="0.56" stop-color="#ef5b26"/><stop offset="0.73" stop-color="#ef4926"/><stop offset="0.9" stop-color="#ee3025"/><stop offset="1" stop-color="#ed1c24"/></radialGradient><clipPath id="clip-path"><rect class="cls-1" y="5.1" width="106.51" height="106.51"/></clipPath><radialGradient id="radial-gradient-2" cx="49.09" cy="54.51" fx="-0.703120407665601" r="49.79" gradientTransform="translate(-123.53 -87.45) rotate(-37.88) scale(1 4)" gradientUnits="userSpaceOnUse"><stop offset="0.74" stop-color="#f26522"/><stop offset="0.8" stop-color="#f26122"/><stop offset="0.86" stop-color="#f15722"/><stop offset="0.92" stop-color="#f04423"/><stop offset="0.97" stop-color="#ee2b24"/><stop offset="1" stop-color="#ed1c24"/></radialGradient></defs><g id="Layer_2" data-name="Layer 2"><path class="cls-2" d="M107.3,3.54V108.61H3V3.54H107.3m3-3H0V111.61H110.3V.54Z"/><g class="cls-3"><circle class="cls-4" cx="30.14" cy="83.2" r="56.74"/><circle class="cls-5" cx="21.95" cy="92.17" r="45.39"/><circle class="cls-6" cx="15.05" cy="101.3" r="34.05"/></g><path class="cls-7" d="M28.42,14.9H18.05L12.19,9H6V6.77h7.09L19,12.63h9.43Zm4.63-3.45H28.42v4.63h4.63ZM45.18,5.39H40.54V10h4.64ZM19.62,17.5H15v4.63h4.63Zm53.6-6.05H68.59v4.63h4.63Zm26.93,0H95.52v4.63h4.63Zm-29,11.36H66.54v4.63h4.63ZM17.34,18.68H6V21h11.3Zm75.21-6H76.17V14.9H92.55Zm11.58,0H95.52V14.9h8.61Zm0-5.86H42.8V9h61.33ZM83.54,21h20.59V18.68H82.6L77.29,24h-7.6v2.27h8.54ZM63.51,24h-9.4V26.3h9.4ZM12.8,24H6V26.3H12.8ZM58,14.92H70.9V12.65H57l-6,6H22.59V21H51.94Zm46.17,14.46H63.87v2.27h40.26ZM93,40.17H90.25l-5.44-5.45H70.34V37H83.87l5.44,5.45H93Zm11.13-.1H98.05v2.27h6.08Zm-9.75,7.62h9.75V45.42H93.44l-5.33,5.33H84.52V53h4.53Zm9.75,8.43H86.91v2.27h17.22ZM93.46,61.47H89.6v2.27h3.86Zm10.67,0H100v2.27h4.1Zm0,5.35H90.63v2.27h13.5Zm0,10.77H101l-5.42-5.42H91.19v2.27h3.48l5.42,5.42h4Zm0,4.9H91.19v2.27h12.94Zm0,5.72H91.19v2.27h12.94Zm0,5.35H91.19v2.27h12.94Zm-3.35,7.57h3.35V98.86H99.84l-5.39,5.4H89.6v2.27h5.79Zm3.35-14.21H99.5v4.63h4.63ZM97.07,60.29H92.44v4.63h4.63ZM96.23,39H91.6v4.63h4.63Zm-11-15L83,26.3h21.15V24ZM89.6,34.72,91.87,37h12.26V34.72Zm-7.44,5.35H74.9v2.27h9.53Zm6.47,5.35H80.88v2.27h5.48Zm7.45,5.35-2.17,2.17V53h10.22V50.77Zm4.31,21.4,2.27,2.27h1.56V72.17ZM93,77.52H91.19v2.27h4Zm2,21.39H90.63v2.27h2.11Zm7.44,5.35-2.27,2.27H104v-2.27ZM52.23,12.63H36V14.9H50ZM17.92,6.77,20.19,9H37.58V6.77ZM11,12.63H6V14.9h7.23Zm66.57,6H59L56.72,21H75.3Z"/><path class="cls-8" d="M117.25,1.69H115.9V.9h3.66v.79h-1.34V5.1h-1Z"/><path class="cls-8" d="M124.2,5.1V2.58L123,4.66h-.44l-1.22-2V5.1h-.92V.9h.81l1.57,2.61L124.31.9h.79l0,4.2Z"/></g></svg>