<svg id="Layer_1" data-name="Layer 1" xmlns="http://www.w3.org/2000/svg" xmlns:xlink="http://www.w3.org/1999/xlink" viewBox="0 0 421.2 122.28"><defs><style>.cls-1{fill:none;}.cls-2{fill:url(#radial-gradient);}.cls-3{clip-path:url(#clip-path);}.cls-4{fill:#f06a27;}.cls-5{fill:#f78f2f;}.cls-6{fill:#f9b227;}.cls-7{fill:url(#radial-gradient-2);}.cls-8{fill:#042f3b;}</style><radialGradient id="radial-gradient" cx="68.39" cy="61.35" r="55.34" gradientTransform="translate(-139.2 -86.34) rotate(-39) scale(1 4)" gradientUnits="userSpaceOnUse"><stop offset="0.17" stop-color="#f06a27"/><stop offset="0.37" stop-color="#f06627"/><stop offset="0.56" stop-color="#ef5b26"/><stop offset="0.73" stop-color="#ef4926"/><stop offset="0.9" stop-color="#ee3025"/><stop offset="1" stop-color="#ed1c24"/></radialGradient><clipPath id="clip-path"><rect class="cls-1" x="13.24" y="10.38" width="106.51" height="106.51"/></clipPath><radialGradient id="radial-gradient-2" cx="62.33" cy="59.78" fx="12.53894353498169" r="49.79" gradientTransform="translate(-133.7 -90.7) rotate(-37.88) scale(1 4)" gradientUnits="userSpaceOnUse"><stop offset="0.74" stop-color="#f26522"/><stop offset="0.8" stop-color="#f26122"/><stop offset="0.86" stop-color="#f15722"/><stop offset="0.92" stop-color="#f04423"/><stop offset="0.97" stop-color="#ee2b24"/><stop offset="1" stop-color="#ed1c24"/></radialGradient></defs><path class="cls-2" d="M120.54,8.82V113.89H16.24V8.82h104.3m3-3H13.24V116.89h110.3V5.82Z"/><g class="cls-3"><circle class="cls-4" cx="43.38" cy="88.47" r="56.74"/><circle class="cls-5" cx="35.19" cy="97.45" r="45.39"/><circle class="cls-6" cx="28.29" cy="106.58" r="34.05"/></g><path class="cls-7" d="M41.67,20.17H31.29l-5.86-5.86H19.28V12.05h7.09l5.86,5.85h9.44Zm4.63-3.45H41.67v4.63H46.3Zm12.12-6H53.79V15.3h4.63ZM32.87,22.77H28.24V27.4h4.63Zm53.59-6.05H81.83v4.63h4.63Zm26.93,0h-4.63v4.63h4.63Zm-29,11.36H79.79v4.63h4.63ZM30.58,24H19.28v2.27h11.3Zm75.21-6.05H89.41v2.27h16.38Zm11.58,0h-8.61v2.27h8.61Zm0-5.85H56.05v2.26h61.32ZM96.78,26.22h20.59V24H95.84l-5.31,5.31h-7.6v2.27h8.54Zm-20,3.08h-9.4v2.27h9.4ZM26,29.3H19.28v2.27H26Zm45.17-9.1H84.14V17.93H70.27l-6,6H35.83v2.27H65.18Zm46.16,14.45H77.11v2.27h40.26ZM106.24,45.44h-2.75L98.05,40H83.58v2.27H97.11l5.44,5.44h3.69Zm11.13-.09h-6.08v2.27h6.08ZM107.62,53h9.75V50.7H106.68L101.36,56h-3.6v2.26h4.54Zm9.75,8.43H100.15v2.27h17.22ZM106.7,66.74h-3.85V69h3.85Zm10.67,0h-4.09V69h4.09Zm0,5.35h-13.5v2.27h13.5Zm0,10.77h-3.09l-5.43-5.42h-4.41v2.27h3.48l5.42,5.42h4Zm0,4.9H104.44V90h12.93Zm0,5.73H104.44v2.27h12.93Zm0,5.35H104.44v2.27h12.93ZM114,106.41h3.34v-2.27h-4.28l-5.4,5.4h-4.84v2.27h5.78Zm3.34-14.21h-4.63v4.63h4.63Zm-7.06-26.64h-4.63v4.63h4.63Zm-.84-21.3h-4.63v4.63h4.63Zm-11-15-2.27,2.27h21.15V29.3ZM102.84,40l2.27,2.27h12.26V40ZM95.4,45.35H88.14v2.27h9.53Zm6.47,5.35H94.12V53H99.6Zm7.45,5.35-2.17,2.17v.1h10.22V56.05Zm4.31,21.39,2.27,2.27h1.56V77.44Zm-7.42,5.35h-1.77v2.27h4Zm2,21.4h-4.38v2.27H106Zm7.44,5.35-2.27,2.27h3.8v-2.27ZM65.48,17.9H49.26v2.27h14ZM31.17,12.05l2.27,2.26H50.83V12.05ZM24.24,17.9h-5v2.27h7.23ZM90.81,24H72.23L70,26.22H88.54Z"/><path class="cls-8" d="M161.38,28.25v8.53h16v8.66h-16V62.75h-9.45V19.59h29.24v8.66Z"/><path class="cls-8" d="M188.43,46.71V19.59h9.38V46.83c0,4.91,2.48,7.57,7.63,7.57s7.69-2.66,7.69-7.57V19.59h9.38V46.71c0,10.65-6.11,16.71-17.07,16.71S188.43,57.36,188.43,46.71Z"/><path class="cls-8" d="M265.18,28.25H251.74v34.5h-9.38V28.25H228.92V19.59h36.26Z"/><path class="cls-8" d="M271.59,46.71V19.59H281V46.83c0,4.91,2.49,7.57,7.63,7.57s7.69-2.66,7.69-7.57V19.59h9.38V46.71c0,10.65-6.11,16.71-17.07,16.71S271.59,57.36,271.59,46.71Z"/><path class="cls-8" d="M351.49,62.75h-10.9l-6-9.93c-2.18-3.57-3.21-5.38-6.54-5.38h-2.72V62.75H315.9V19.59h18.22c9.8,0,15.73,4.24,15.73,14.11,0,6.66-3.51,10.89-9.32,12.71A14.39,14.39,0,0,1,344,50.58ZM325.34,39.63h8.41c5,0,6.66-1.88,6.66-5.81s-1.75-5.93-6.66-5.93h-8.41Z"/><path class="cls-8" d="M387.92,54.1v8.65h-29.6V19.59h29.24v8.66H367.77v8.17h16.7v8.66h-16.7v9Z"/><path class="cls-8" d="M155.87,76.93V87h2.48V88h-6V87h2.5V76.93h-2.5V76h6v.93Z"/><path class="cls-8" d="M170.49,82.27V88h-1V82.25c0-2.09-1-3.07-2.7-3.07s-2.81,1-2.81,3.16V88h-1V78.38h.94v1.68A3.2,3.2,0,0,1,167,78.23C169.25,78.23,170.49,79.53,170.49,82.27Z"/><path class="cls-8" d="M178.63,78.24a3.3,3.3,0,0,1,3.44,2.09l-.85.41a2.37,2.37,0,0,0-2.59-1.61c-1.39,0-2.22.56-2.22,1.56,0,2.84,5.74.92,5.74,4.79,0,1.67-1.41,2.62-3.5,2.62-1.82,0-3-.68-3.6-2.19l.85-.32c.39,1.12,1.27,1.63,2.77,1.63s2.48-.56,2.48-1.68c0-3-5.75-1-5.75-4.78C175.4,79.16,176.64,78.24,178.63,78.24Z"/><path class="cls-8" d="M193.37,86.93a3.1,3.1,0,0,1-2.58,1.17c-2.23,0-3.28-1.22-3.28-3.41V79.3h-1.75v-.92h1.75V76h1v2.38h4.09v.92h-4.09v5.39c0,1.63.76,2.49,2.27,2.49a2.14,2.14,0,0,0,1.82-.81Z"/><path class="cls-8" d="M196.5,87.05h2.36V79.3H196.5v-.92h3.38v8.67h2.3V88H196.5Zm1.85-11.63a.95.95,0,1,1,.94,1A.89.89,0,0,1,198.35,75.42Z"/><path class="cls-8" d="M212.34,86.93a3.1,3.1,0,0,1-2.58,1.17c-2.23,0-3.28-1.22-3.28-3.41V79.3h-1.75v-.92h1.75V76h1v2.38h4.1v.92h-4.1v5.39c0,1.63.76,2.49,2.28,2.49a2.17,2.17,0,0,0,1.82-.81Z"/><path class="cls-8" d="M223.51,78.38V88h-.95V86.33a3.18,3.18,0,0,1-3.09,1.77c-2.13,0-3.39-1.29-3.39-4V78.38h1v5.78c0,2,1,3,2.66,3s2.73-1,2.73-3.08V78.38Z"/><path class="cls-8" d="M235.41,86.93a3.1,3.1,0,0,1-2.58,1.17c-2.23,0-3.28-1.22-3.28-3.41V79.3H227.8v-.92h1.75V76h1v2.38h4.09v.92h-4.09v5.39c0,1.63.76,2.49,2.28,2.49a2.14,2.14,0,0,0,1.81-.81Z"/><path class="cls-8" d="M242.77,87.2a2.7,2.7,0,0,0,2.77-1.68l.85.41a3.61,3.61,0,0,1-3.63,2.17c-2.54,0-4.1-1.58-4.1-4.93s1.61-4.94,4.05-4.94,3.8,1.44,3.8,4.91v.37h-6.85C239.76,86.05,240.87,87.2,242.77,87.2Zm-3.09-4.52h5.85c-.09-2.5-1-3.54-2.86-3.54S239.8,80.27,239.68,82.68Z"/><path class="cls-8" d="M257.6,83.17c0-3.28,1.53-4.94,4.13-4.94s4.13,1.66,4.13,4.94-1.51,4.93-4.13,4.93S257.6,86.45,257.6,83.17Zm7.24,0c0-2.7-1.12-4-3.11-4s-3.11,1.29-3.11,4,1.12,4,3.11,4S264.84,85.88,264.84,83.17Z"/><path class="cls-8" d="M272.44,77.6v.78h4.11v.92h-4.11v7.75h3.5V88h-6.12v-.92h1.6V79.3h-1.56v-.92h1.56V77.6c0-2.13,1.14-3.45,3.28-3.45a3.23,3.23,0,0,1,2.6,1.17l-.75.58a2.14,2.14,0,0,0-1.8-.84C273.2,75.06,272.44,76,272.44,77.6Z"/><path class="cls-8" d="M295.4,76.93h-4.19V88h-1v-11H286V76h9.43Z"/><path class="cls-8" d="M301.71,87.2a2.71,2.71,0,0,0,2.77-1.68l.85.41a3.62,3.62,0,0,1-3.63,2.17c-2.54,0-4.1-1.58-4.1-4.93s1.61-4.94,4-4.94,3.81,1.44,3.81,4.91v.37H298.6C298.7,86.05,299.81,87.2,301.71,87.2Zm-3.09-4.52h5.85c-.09-2.5-1-3.54-2.86-3.54S298.74,80.27,298.62,82.68Z"/><path class="cls-8" d="M309.77,83.17c0-3.3,1.51-4.94,4.08-4.94a3.41,3.41,0,0,1,3.5,2.33l-.86.45a2.55,2.55,0,0,0-2.64-1.83c-1.94,0-3.06,1.27-3.06,4s1.12,4,3.06,4a2.53,2.53,0,0,0,2.64-1.84l.88.46a3.45,3.45,0,0,1-3.52,2.33C311.28,88.1,309.77,86.45,309.77,83.17Z"/><path class="cls-8" d="M329.54,82.27V88h-1V82.25c0-2.09-1-3.07-2.7-3.07s-2.81,1-2.81,3.16V88h-1V74.3h1v5.59a3.23,3.23,0,0,1,3.08-1.66C328.3,78.23,329.54,79.53,329.54,82.27Z"/><path class="cls-8" d="M342.43,82.27V88h-1V82.25c0-2.09-1-3.07-2.71-3.07s-2.8,1-2.8,3.16V88h-1V78.38h.93v1.68A3.21,3.21,0,0,1,339,78.23C341.19,78.23,342.43,79.53,342.43,82.27Z"/><path class="cls-8" d="M347.22,83.17c0-3.28,1.53-4.94,4.13-4.94s4.13,1.66,4.13,4.94S354,88.1,351.35,88.1,347.22,86.45,347.22,83.17Zm7.24,0c0-2.7-1.12-4-3.11-4s-3.11,1.29-3.11,4,1.12,4,3.11,4S354.46,85.88,354.46,83.17Z"/><path class="cls-8" d="M358.82,87.05h2.37V75.22h-2.37V74.3h3.39V87.05h2.3V88h-5.69Z"/><path class="cls-8" d="M367.84,83.17c0-3.28,1.53-4.94,4.13-4.94s4.13,1.66,4.13,4.94S374.59,88.1,372,88.1,367.84,86.45,367.84,83.17Zm7.24,0c0-2.7-1.12-4-3.11-4s-3.11,1.29-3.11,4,1.12,4,3.11,4S375.08,85.88,375.08,83.17Z"/><path class="cls-8" d="M388.45,78.38v9.93c0,2.51-1.5,3.62-3.8,3.62a4.9,4.9,0,0,1-3.38-1.24l.58-.72a3.92,3.92,0,0,0,2.75,1c1.75,0,2.91-.72,2.91-2.7V86.18a3.22,3.22,0,0,1-3.18,1.92c-2.34,0-3.87-1.65-3.87-4.93s1.54-4.94,3.91-4.94a3.2,3.2,0,0,1,3.05,1.71V78.38Zm-1,5.47V82.49c0-2.24-1.18-3.31-2.9-3.31-1.89,0-3,1.29-3,4s1.12,4,3,4C386.2,87.15,387.42,86.1,387.42,83.85Z"/><path class="cls-8" d="M401.52,78.38l-5.75,13.39h-1l1.78-4-3.79-9.36h1.1L397,86.57l3.4-8.19Z"/><path class="cls-8" d="M161.45,98.87h-4.2v11h-1v-11H152v-.93h9.44Z"/><path class="cls-8" d="M170.56,101.17l-.65.75a2.43,2.43,0,0,0-1.83-.8c-1.38,0-2.54,1-2.54,3v5.77h-1v-9.59h.94v1.61a2.93,2.93,0,0,1,2.82-1.76A3,3,0,0,1,170.56,101.17Z"/><path class="cls-8" d="M181.22,104.21v5.7h-.94v-1.65A3.33,3.33,0,0,1,177.1,110c-2,0-3.19-1-3.19-2.68s1.12-2.69,3.31-2.69h3v-.53c0-2.12-.95-3-2.54-3A2.61,2.61,0,0,0,175,103l-.87-.46a3.46,3.46,0,0,1,3.53-2.34C179.91,100.17,181.22,101.36,181.22,104.21Zm-1,2v-.73h-3c-1.48,0-2.29.62-2.29,1.84s.78,1.78,2.33,1.78A2.7,2.7,0,0,0,180.2,106.23Z"/><path class="cls-8" d="M185.72,109h2.36v-7.75h-2.36v-.92h3.39V109h2.29v.92h-5.68Zm1.86-11.63a.94.94,0,1,1,.93,1A.88.88,0,0,1,187.58,97.36Z"/><path class="cls-8" d="M203.15,104.21v5.7h-1V104.2c0-2.1-1-3.08-2.71-3.08s-2.8,1-2.8,3.16v5.63h-1v-9.59h.93V102a3.21,3.21,0,0,1,3.17-1.83C201.91,100.17,203.15,101.48,203.15,104.21Z"/><path class="cls-8" d="M207.65,109H210v-7.75h-2.36v-.92H211V109h2.29v.92h-5.68Zm1.85-11.63a.95.95,0,1,1,.94,1A.89.89,0,0,1,209.5,97.36Z"/><path class="cls-8" d="M225.08,104.21v5.7h-1V104.2c0-2.1-1-3.08-2.71-3.08s-2.8,1-2.8,3.16v5.63h-1v-9.59h.93V102a3.21,3.21,0,0,1,3.17-1.83C223.83,100.17,225.08,101.48,225.08,104.21Z"/><path class="cls-8" d="M237.86,100.32v9.93c0,2.51-1.5,3.62-3.79,3.62a4.9,4.9,0,0,1-3.38-1.24l.57-.72a4,4,0,0,0,2.76,1c1.75,0,2.9-.71,2.9-2.7v-2.13a3.21,3.21,0,0,1-3.17,1.92c-2.35,0-3.88-1.65-3.88-4.93s1.55-4.94,3.91-4.94a3.21,3.21,0,0,1,3.06,1.71v-1.56Zm-1,5.47v-1.36c0-2.24-1.19-3.31-2.91-3.31-1.88,0-3,1.29-3,4s1.12,4,3,4C235.62,109.09,236.84,108,236.84,105.79Z"/><path class="cls-8" d="M256.76,104.21v5.7h-.93v-1.65a3.33,3.33,0,0,1-3.18,1.78c-2,0-3.2-1-3.2-2.68s1.13-2.69,3.32-2.69h3v-.53c0-2.12-1-3-2.53-3a2.61,2.61,0,0,0-2.67,1.85l-.87-.46a3.47,3.47,0,0,1,3.54-2.34C255.45,100.17,256.76,101.36,256.76,104.21Zm-1,2v-.73h-3c-1.48,0-2.3.62-2.3,1.84s.79,1.78,2.33,1.78A2.69,2.69,0,0,0,255.74,106.23Z"/><path class="cls-8" d="M269.65,104.21v5.7h-1V104.2c0-2.1-1-3.08-2.7-3.08s-2.81,1-2.81,3.16v5.63h-1v-9.59H263V102a3.2,3.2,0,0,1,3.16-1.83C268.41,100.17,269.65,101.48,269.65,104.21Z"/><path class="cls-8" d="M282.43,96.24v13.67h-.93v-1.79a3.23,3.23,0,0,1-3.18,1.92c-2.35,0-3.88-1.65-3.88-4.93s1.55-4.94,3.91-4.94a3.21,3.21,0,0,1,3.06,1.71V96.24Zm-1,9.55v-1.36c0-2.24-1.19-3.31-2.9-3.31-1.89,0-3.05,1.29-3.05,4s1.13,4,3,4C280.19,109.09,281.41,108,281.41,105.79Z"/><path class="cls-8" d="M298.21,97.79a3.84,3.84,0,0,1,4.08,2.6l-.89.42a2.88,2.88,0,0,0-3.16-2.07c-1.83,0-2.84.7-2.84,2.09,0,3.65,7,1,7,5.86,0,2.25-1.55,3.35-4.2,3.35-2.33,0-3.57-.83-4.35-2.6l.92-.44c.54,1.36,1.54,2.09,3.48,2.09s3.11-.73,3.11-2.33c0-4-7-1.24-7-5.86C294.37,98.87,295.74,97.79,298.21,97.79Z"/><path class="cls-8" d="M313.76,108.87a3.1,3.1,0,0,1-2.58,1.17c-2.23,0-3.28-1.22-3.28-3.41v-5.39h-1.75v-.92h1.75V97.94h1v2.38H313v.92h-4.1v5.39c0,1.63.76,2.49,2.28,2.49a2.17,2.17,0,0,0,1.82-.81Z"/><path class="cls-8" d="M324.93,100.32v9.59H324v-1.64a3.18,3.18,0,0,1-3.09,1.77c-2.13,0-3.39-1.29-3.39-4v-5.76h1v5.78c0,2,1,3,2.66,3s2.73-1,2.73-3.08v-5.69Z"/><path class="cls-8" d="M337.82,96.24v13.67h-.94v-1.79a3.21,3.21,0,0,1-3.17,1.92c-2.35,0-3.88-1.65-3.88-4.93s1.55-4.94,3.91-4.94a3.21,3.21,0,0,1,3.06,1.71V96.24Zm-1,9.55v-1.36c0-2.24-1.19-3.31-2.91-3.31-1.88,0-3,1.29-3,4s1.12,4,3,4C335.58,109.09,336.8,108,336.8,105.79Z"/><path class="cls-8" d="M342.43,109h2.36v-7.75h-2.36v-.92h3.38V109h2.29v.92h-5.67Zm1.85-11.63a.88.88,0,0,1,.93-1,1,1,0,0,1,0,1.94A.88.88,0,0,1,344.28,97.36Z"/><path class="cls-8" d="M355.57,109.14a2.72,2.72,0,0,0,2.77-1.68l.85.41a3.64,3.64,0,0,1-3.64,2.17c-2.53,0-4.1-1.58-4.1-4.93s1.62-4.94,4.05-4.94,3.81,1.44,3.81,4.91v.37h-6.85C352.56,108,353.66,109.14,355.57,109.14Zm-3.1-4.52h5.85c-.08-2.5-1-3.54-2.86-3.54S352.59,102.21,352.47,104.62Z"/><path class="cls-8" d="M367,100.18a3.29,3.29,0,0,1,3.44,2.09l-.85.41a2.37,2.37,0,0,0-2.59-1.61c-1.39,0-2.22.56-2.22,1.56,0,2.84,5.74.92,5.74,4.79,0,1.67-1.41,2.62-3.5,2.62-1.82,0-3-.68-3.6-2.19l.85-.32c.39,1.12,1.27,1.63,2.77,1.63s2.48-.56,2.48-1.68c0-3-5.75-1-5.75-4.78C363.74,101.1,365,100.18,367,100.18Z"/><path class="cls-8" d="M404.88,24.58A3.89,3.89,0,1,1,401,20.72,3.78,3.78,0,0,1,404.88,24.58Zm-.42,0A3.37,3.37,0,0,0,401,21.13a3.48,3.48,0,1,0,3.45,3.45Zm-2.49.66,1,1.58h-.59l-1-1.48h-1.4v1.47h-.57V22.38h1.72c1.09,0,1.76.57,1.76,1.47A1.39,1.39,0,0,1,402,25.24Zm.42-1.39c0-.62-.45-1-1.23-1H400v2h1.12C401.94,24.87,402.39,24.49,402.39,23.85Z"/></svg>